Coordinates
version=1
nRows=15
nColumns=34
inDegrees=yes

Units are S.I. units (second, meters, Newtons, ...)
If the header above contains a line with 'inDegrees', this indicates whether rotational values are in degrees (yes) or radians (no).

endheader
time	pelvis_tilt	pelvis_list	pelvis_rotation	pelvis_tx	pelvis_ty	pelvis_tz	hip_flexion_r	hip_adduction_r	hip_rotation_r	knee_angle_r	ankle_angle_r	subtalar_angle_r	mtp_angle_r	hip_flexion_l	hip_adduction_l	hip_rotation_l	knee_angle_l	ankle_angle_l	subtalar_angle_l	mtp_angle_l	lumbar_extension	lumbar_bending	lumbar_rotation	arm_flex_r	arm_add_r	arm_rot_r	elbow_flex_r	pro_sup_r	arm_flex_l	arm_add_l	arm_rot_l	elbow_flex_l	pro_sup_l
      0.00000000	    -33.41507598	    -51.39864889	    -60.90926211	      0.09446143	      0.57268526	     -0.04754290	      5.77799441	     -3.44967234	    -24.23695548	     16.69935372	     17.77694055	    -16.82829284	      0.00000000	      5.75808141	      1.62242708	      1.43143097	      4.23286011	     32.88902205	      1.32335059	      0.00000000	     -5.04926761	      1.84390100	      0.52574754	      1.05605256	     -7.80531365	      2.23831744	     35.20294883	    115.84439645	      3.27104623	     -3.89919665	     14.59116669	     32.93144991	    106.34535593
      0.01666670	    -33.38562929	    -51.28673184	    -60.87885702	      0.09426887	      0.57260331	     -0.04707124	      5.94023883	     -3.56924341	    -25.01357602	     16.79076892	     17.56261134	    -17.05424793	      0.00000000	      5.76303865	      1.67557884	      1.63928988	      4.02215061	     32.92963503	      1.29286045	      0.00000000	     -5.01190767	      1.81200524	      0.44180147	      0.98268142	     -7.72725901	      2.52235819	     35.45733856	    115.79426257	      3.25111560	     -4.12032445	     15.07076770	     33.77001056	    106.65763522
      0.03333330	    -34.09721770	    -51.63678998	    -61.28954198	      0.09406650	      0.57277046	     -0.04694778	      5.93860173	     -3.04686121	    -25.24638632	     17.08882314	     17.73383518	    -16.57359456	      0.00000000	      5.54276822	      1.13081719	      2.73679848	      3.67240789	     32.57269045	      0.10567296	      0.00000000	     -5.11623513	      2.34480917	      0.44358534	      1.77591280	     -8.32091566	      5.73104705	     34.19126141	    115.94745875	      3.68458179	     -4.08666123	     15.83834995	     33.28576065	    107.94827786
      0.05000000	    -34.38144145	    -51.83368397	    -61.89167549	      0.09268458	      0.57407700	     -0.04612282	      5.91963434	     -2.67889844	    -25.46220694	     16.86393718	     17.77603074	    -15.91012869	      0.00000000	      5.26900276	      0.76574712	      3.24225772	      3.31429024	     32.54526109	     -0.81082337	      0.00000000	     -5.21870458	      2.42892894	      1.21016748	      2.17122538	     -8.13535397	      6.62333556	     32.86438237	    115.92282144	      4.00030945	     -3.95970382	     15.16209208	     33.69220999	    108.54054295
      0.06666670	    -34.30988990	    -51.81888497	    -61.62379170	      0.09213977	      0.57437189	     -0.04577764	      5.77495689	     -2.59782889	    -25.25044857	     16.47972374	     17.62329417	    -15.54465659	      0.00000000	      5.43186363	      0.80590403	      3.63821411	      3.62377611	     32.86828620	     -0.92802861	      0.00000000	     -5.23353587	      2.14098126	      1.80883814	      1.92998275	     -7.90594949	      7.02558335	     32.32552393	    115.97029768	      4.36082611	     -4.09515170	     15.09912734	     33.83590093	    108.63920050
      0.08333330	    -33.96169774	    -51.98246631	    -60.80283143	      0.09135117	      0.57460883	     -0.04627932	      5.27637150	     -2.43343513	    -24.27642636	     16.04842120	     18.11517402	    -14.43678804	      0.00000000	      5.00491747	      0.97468766	      4.71161830	      3.17019315	     32.57092333	     -2.08825750	      0.00000000	     -5.39024551	      1.84211404	      1.47013563	      2.82667436	     -8.04367337	     11.16560997	     30.12321157	    116.48928976	      4.81306642	     -4.45289448	     15.86860973	     33.13767464	    110.12788809
      0.10000000	    -34.15703510	    -51.93783625	    -60.12251734	      0.09131498	      0.57429197	     -0.04643108	      5.25566165	     -2.24062180	    -22.93672720	     16.11090962	     17.95137431	    -13.57356287	      0.00000000	      5.08234059	      1.00010496	      4.85057640	      3.02594450	     32.42798407	     -1.92278881	      0.00000000	     -5.25075867	      1.93648839	      0.86866402	      2.55886418	     -7.86560304	     11.27727060	     29.91827466	    116.48804510	      4.96567559	     -4.56458300	     15.84977472	     32.91028569	    110.20034692
      0.11666670	    -34.11822466	    -51.97581792	    -59.69200889	      0.09180992	      0.57499193	     -0.04660066	      4.78120842	     -2.06755296	    -20.87839306	     15.79084662	     17.97605289	    -12.10583781	      0.00000000	      4.65311335	      1.08702360	      4.29852163	      2.22431003	     31.82570338	     -1.63938544	      0.00000000	     -5.17199931	      1.80217580	      0.60985703	      2.64852257	     -7.65849849	     12.28770954	     28.50302991	    116.56379253	      5.23412448	     -4.60411286	     16.32332296	     32.21979975	    110.89678059
      0.13333330	    -34.28207325	    -51.84185277	    -59.30600982	      0.09199399	      0.57466676	     -0.04702103	      4.59738921	     -1.97587959	    -19.74334495	     15.58232506	     17.48098365	    -11.03715082	      0.00000000	      4.83792069	      1.18374420	      4.38905556	      2.12904298	     31.65876929	     -1.41689768	      0.00000000	     -4.99081317	      1.81700642	      0.14659142	      2.40575395	     -7.78612562	     12.41647344	     28.27686691	    116.57438587	      5.22623169	     -4.71143044	     16.44387004	     32.10025660	    111.02107176
      0.15000000	    -34.63388287	    -51.97885479	    -59.41406383	      0.09204042	      0.57555264	     -0.04714182	      4.09735422	     -1.67359893	    -18.68896970	     15.18514866	     17.30251720	     -9.22650427	      0.00000000	      4.57497750	      0.87169799	      4.14144882	      1.57739639	     31.49003925	     -0.81832680	      0.00000000	     -5.00252563	      2.00734006	      0.13776530	      2.45521450	     -7.63125485	     13.55330785	     27.03628087	    116.72204211	      5.48634540	     -4.77660018	     17.27648211	     31.52929439	    111.76583168
      0.16666670	    -34.81983788	    -51.92831805	    -59.26715484	      0.09214411	      0.57578817	     -0.04760583	      3.83057197	     -1.70663252	    -18.33397301	     15.18423091	     17.07847251	     -8.06148478	      0.00000000	      4.60236446	      0.77896058	      4.04970214	      1.31004455	     31.34325150	     -0.02370350	      0.00000000	     -5.01611149	      2.07108536	     -0.21888490	      2.53942395	     -7.58111446	     14.74515479	     26.30842223	    116.84891937	      5.67665031	     -4.71211904	     18.03389935	     30.78980393	    112.61498027
      0.18333330	    -34.99962115	    -51.84234061	    -59.16760174	      0.09114063	      0.57631389	     -0.04820622	      3.71940177	     -1.65233979	    -17.78567779	     15.24253159	     16.73101444	     -7.43889493	      0.00000000	      4.79978578	      0.67973660	      4.15826904	      1.24507822	     31.06797228	      0.22263429	      0.00000000	     -5.06394534	      2.08337192	     -0.39677309	      2.43839097	     -7.63188467	     14.84853111	     26.18709844	    116.85556967	      5.70740443	     -4.92311843	     18.04380856	     30.61708174	    112.69825634
      0.20000000	    -35.49445182	    -51.77060268	    -59.45800727	      0.09100592	      0.57685546	     -0.04829192	      3.55644093	     -1.35569205	    -17.80360939	     14.89404849	     16.44944582	     -6.49263616	      0.00000000	      4.81766500	      0.40767908	      3.90662210	      0.77734301	     30.63009659	      0.54063700	      0.00000000	     -4.98344103	      2.27938899	     -0.45915107	      2.58010559	     -7.69841397	     15.25548445	     25.49030773	    116.90529786	      5.83857453	     -4.85821445	     18.34557837	     30.03012743	    113.00758112
      0.21666670	    -35.84079111	    -51.84228260	    -59.71795536	      0.09000050	      0.57678393	     -0.04896184	      3.34016940	     -1.08078771	    -17.77641119	     14.49487705	     16.29452816	     -5.27274837	      0.00000000	      4.90075717	      0.16011851	      3.72993654	      0.65788560	     30.55467119	      0.70958555	      0.00000000	     -5.07046619	      2.50712194	     -0.43841617	      2.77940200	     -7.59855847	     15.77808314	     24.89199974	    116.97571965	      5.95620588	     -4.74362416	     18.81379492	     29.64702477	    113.37907617
      0.23333330	    -35.87850558	    -51.80734795	    -59.68554554	      0.08959500	      0.57648684	     -0.04953404	      3.34491852	     -1.07822434	    -17.74081793	     14.48355904	     16.25645633	     -5.20850148	      0.00000000	      4.98354140	      0.17481322	      3.73537988	      0.61541838	     30.54750791	      0.72078543	      0.00000000	     -5.19531688	      2.53502616	     -0.41936981	      2.74483861	     -7.55619396	     15.79571588	     24.87623397	    116.97814849	      5.87547534	     -4.76286387	     18.82677618	     29.60837484	    113.38590017
